<svg id="Layer_1" data-name="Layer 1" xmlns="http://www.w3.org/2000/svg" viewBox="0 0 222.32 283.63"><defs><style>.cls-1{fill:#d63e26;}</style></defs><title>mamabird-icon</title><path class="cls-1" d="M94.71,96.42c-18.92,21.75-4.06,49.56-2.27,49,.07,0,.1-.11.1-.18.17-5.44,11.2-55.42,61.68-65.36,45.75-9,73.47,26.18,80.39,37,2.11,3.3.41-24.12-26.36-58s-79.14-28-69.88-24.93c23.85,8.52,24.57,20.73,21.95,19.95-12.11-4.64-21.43-8.64-37.3-8.05-24.25.9-40.7,15.25-36.82,14.81,23-3.17,33.77,5.13,29.14,6.3-35.73.81-48.07,21.92-48.65,36.19a.46.46,0,0,0,.73.37C90.42,88.08,96,94.84,94.71,96.42Z" transform="translate(-66.68 -31.52)"/><path class="cls-1" d="M241.44,178.46s-100.59,36.51-103,91.64c-2,45.79,49.94,45.06,49.94,45.06s41.7,0,45.59-48.76C238.1,214.33,235.59,192.16,241.44,178.46Z" transform="translate(-66.68 -31.52)"/><path class="cls-1" d="M243.38,138.56s4.64,21.72-1.95,39.89C287,161.69,289,162.67,289,161.33,289,159.73,243.38,138.56,243.38,138.56Z" transform="translate(-66.68 -31.52)"/><path d="M189.35,168.6" transform="translate(-66.68 -31.52)"/><circle class="cls-1" cx="116.9" cy="103.75" r="13.67"/></svg>