<svg id="Layer_1" data-name="Layer 1" xmlns="http://www.w3.org/2000/svg" viewBox="0 0 993.88 163.71"><defs><style>.cls-1{fill:#d63e26;}</style></defs><title>mamabird-title</title><path class="cls-1" d="M165.3,175a14.25,14.25,0,0,1-14.21-14.21V117.7c0-13.74-5.92-24.64-20.61-24.64-15.64,0-21.32,12.08-21.32,24.64v43.12A14.25,14.25,0,0,1,94.93,175a14.46,14.46,0,0,1-14.45-14.21V117.7c0-13.74-5.92-24.64-20.61-24.64-15.87,0-21.32,12.08-21.32,24.64v43.12a14.22,14.22,0,0,1-28.43,0V82.88A14.46,14.46,0,0,1,24.33,68.42c7.82,0,14,6.63,14,14.45,6.87-8.77,17.3-15.4,29.85-15.4,15.16,0,26.3,6.87,33.17,17.77,6.87-9.71,20.37-17.77,36.48-17.77,28.67,0,41.93,19.43,41.93,47.86v45.49A14.46,14.46,0,0,1,165.3,175Z" transform="translate(-10.12 -12.27)"/><path class="cls-1" d="M275.23,175c-7.82,0-13.27-6.87-13.27-14.45-5.69,10.9-19.43,15.4-31,15.4-19.43,0-37-15.16-37-35.06,0-22,17.06-34.59,37.91-34.59,10.19,0,21.09,2.13,29.14,9,0-18.72-4.5-23.22-24.17-23.22-11.61,0-21.8,5.21-28.19,5.21a12,12,0,0,1-12.08-12.08c0-15.4,31.75-17.77,42.88-17.77,29.14,0,50.23,10.42,50.23,42.41v50.7A14.66,14.66,0,0,1,275.23,175Zm-34.83-46.91c-8.06,0-18.24,2.84-18.24,12.79s10,13.27,18.24,13.27c8.05,0,20.61-3.08,20.61-13.27C261,130.26,248.7,128.13,240.41,128.13Z" transform="translate(-10.12 -12.27)"/><path class="cls-1" d="M461.45,175a14.25,14.25,0,0,1-14.21-14.21V117.7c0-13.74-5.92-24.64-20.61-24.64-15.64,0-21.32,12.08-21.32,24.64v43.12A14.25,14.25,0,0,1,391.09,175a14.46,14.46,0,0,1-14.45-14.21V117.7c0-13.74-5.92-24.64-20.61-24.64-15.88,0-21.32,12.08-21.32,24.64v43.12a14.22,14.22,0,0,1-28.43,0V82.88a14.46,14.46,0,0,1,14.22-14.45c7.82,0,14,6.63,14,14.45,6.87-8.77,17.3-15.4,29.85-15.4,15.17,0,26.3,6.87,33.17,17.77,6.87-9.71,20.37-17.77,36.49-17.77,28.67,0,41.93,19.43,41.93,47.86v45.49A14.46,14.46,0,0,1,461.45,175Z" transform="translate(-10.12 -12.27)"/><path class="cls-1" d="M571.38,175c-7.82,0-13.27-6.87-13.27-14.45-5.69,10.9-19.43,15.4-31,15.4-19.43,0-37-15.16-37-35.06,0-22,17.06-34.59,37.91-34.59,10.19,0,21.09,2.13,29.14,9,0-18.72-4.5-23.22-24.17-23.22-11.61,0-21.8,5.21-28.19,5.21a12,12,0,0,1-12.08-12.08c0-15.4,31.75-17.77,42.88-17.77,29.14,0,50.23,10.42,50.23,42.41v50.7A14.66,14.66,0,0,1,571.38,175Zm-34.83-46.91c-8.06,0-18.24,2.84-18.24,12.79s10,13.27,18.24,13.27c8.06,0,20.61-3.08,20.61-13.27C557.17,130.26,544.85,128.13,536.56,128.13Z" transform="translate(-10.12 -12.27)"/><path class="cls-1" d="M711.88,176c-13.27,0-25.11-6.63-29.62-15.4,0,9.48-7.11,14.45-13.27,14.45a14.66,14.66,0,0,1-14.45-14.45V27.44A14.46,14.46,0,0,1,669,13.22a14.26,14.26,0,0,1,14.21,14.21V82.17c3.55-6.87,15.4-14.69,28.67-14.69C741,67.48,763,91.88,763,121.73S741,176,711.88,176ZM708.8,93.06c-16.35,0-25.59,12.79-25.59,28.67s9.24,28.67,25.59,28.67,25.59-12.79,25.59-28.67S725.14,93.06,708.8,93.06Z" transform="translate(-10.12 -12.27)"/><path class="cls-1" d="M790.53,43.79A15.47,15.47,0,0,1,774.9,28.15a15.67,15.67,0,0,1,15.64-15.87,15.88,15.88,0,0,1,15.88,15.87A15.68,15.68,0,0,1,790.53,43.79Zm0,131.25a14.25,14.25,0,0,1-14.21-14.21V82.88a14.46,14.46,0,0,1,14.21-14.45A14.67,14.67,0,0,1,805,82.88v77.95A14.46,14.46,0,0,1,790.53,175Z" transform="translate(-10.12 -12.27)"/><path class="cls-1" d="M886.25,93.06c-17.3,0-34.59,7.82-34.59,27.25v40.51A14.25,14.25,0,0,1,837.44,175,14.46,14.46,0,0,1,823,160.82V82.88a14.67,14.67,0,0,1,14.45-14.45c7.82,0,14,6.63,14,14.45,10.19-11.85,19.19-15.4,34.83-15.4a12.79,12.79,0,0,1,0,25.59Z" transform="translate(-10.12 -12.27)"/><path class="cls-1" d="M989.78,175c-6.16,0-13.27-5-13.27-14.45C972,169.35,960.17,176,946.9,176c-29.14,0-51.41-24.4-51.41-54.25s22.27-54.26,51.41-54.26c13.27,0,25.11,7.82,28.67,14.69V27.44a14.21,14.21,0,1,1,28.43,0V160.59A14.46,14.46,0,0,1,989.78,175Zm-40-82c-16.35,0-25.59,12.79-25.59,28.67s9.24,28.67,25.59,28.67,25.82-12.79,25.82-28.67S966.09,93.06,949.75,93.06Z" transform="translate(-10.12 -12.27)"/></svg>